<svg width="223" height="54" viewBox="0 0 223 54" fill="none" xmlns="http://www.w3.org/2000/svg">
<path d="M46.1248 14.8409V11.0909H72.3066V14.8409H61.3293V46H57.1021V14.8409H46.1248Z" fill="white"/>
<path d="M26.2273 46V11.0909H47.2955V14.8409H30.4545V26.6364H46.2045V30.3864H30.4545V42.25H47.5682V46H26.2273Z" fill="white"/>
<path d="M25.822 11.0909L15.4584 40.4773H15.0493L4.68568 11.0909H0.25386L13.072 46H17.4357L30.2539 11.0909H25.822Z" fill="white"/>
<path d="M76.1068 47.0455C74.4704 47.0455 73.0613 46.6591 71.8795 45.8864C70.6977 45.1136 69.7886 44.0492 69.1522 42.6932C68.5159 41.3371 68.1977 39.7879 68.1977 38.0455C68.1977 36.2727 68.5234 34.7083 69.175 33.3523C69.834 31.9886 70.7507 30.9242 71.925 30.1591C73.1068 29.3864 74.4856 29 76.0613 29C77.2886 29 78.3947 29.2273 79.3795 29.6818C80.3643 30.1364 81.1712 30.7727 81.8 31.5909C82.4287 32.4091 82.8189 33.3636 82.9704 34.4546H80.2886C80.084 33.6591 79.6295 32.9546 78.925 32.3409C78.228 31.7197 77.2886 31.4091 76.1068 31.4091C75.0613 31.4091 74.1447 31.6818 73.3568 32.2273C72.5765 32.7652 71.9666 33.5265 71.5272 34.5114C71.0954 35.4886 70.8795 36.6364 70.8795 37.9546C70.8795 39.303 71.0916 40.4773 71.5159 41.4773C71.9477 42.4773 72.5537 43.2538 73.334 43.8068C74.1219 44.3599 75.0462 44.6364 76.1068 44.6364C76.8037 44.6364 77.4363 44.5152 78.0045 44.2727C78.5727 44.0303 79.0537 43.6818 79.4477 43.2273C79.8416 42.7727 80.1219 42.2273 80.2886 41.5909H82.9704C82.8189 42.6212 82.4439 43.5492 81.8454 44.375C81.2545 45.1932 80.4704 45.8447 79.4931 46.3296C78.5234 46.8068 77.3947 47.0455 76.1068 47.0455ZM93.9818 47.0455C92.406 47.0455 91.0234 46.6705 89.834 45.9205C88.6522 45.1705 87.728 44.1212 87.0613 42.7727C86.4022 41.4242 86.0727 39.8485 86.0727 38.0455C86.0727 36.2273 86.4022 34.6402 87.0613 33.2841C87.728 31.928 88.6522 30.875 89.834 30.125C91.0234 29.375 92.406 29 93.9818 29C95.5575 29 96.9363 29.375 98.1181 30.125C99.3075 30.875 100.232 31.928 100.891 33.2841C101.558 34.6402 101.891 36.2273 101.891 38.0455C101.891 39.8485 101.558 41.4242 100.891 42.7727C100.232 44.1212 99.3075 45.1705 98.1181 45.9205C96.9363 46.6705 95.5575 47.0455 93.9818 47.0455ZM93.9818 44.6364C95.1787 44.6364 96.1636 44.3296 96.9363 43.7159C97.709 43.1023 98.281 42.2955 98.6522 41.2955C99.0234 40.2955 99.209 39.2121 99.209 38.0455C99.209 36.8788 99.0234 35.7917 98.6522 34.7841C98.281 33.7765 97.709 32.9621 96.9363 32.3409C96.1636 31.7197 95.1787 31.4091 93.9818 31.4091C92.7848 31.4091 91.8 31.7197 91.0272 32.3409C90.2545 32.9621 89.6825 33.7765 89.3113 34.7841C88.9401 35.7917 88.7545 36.8788 88.7545 38.0455C88.7545 39.2121 88.9401 40.2955 89.3113 41.2955C89.6825 42.2955 90.2545 43.1023 91.0272 43.7159C91.8 44.3296 92.7848 44.6364 93.9818 44.6364ZM105.985 46.6818V29.2273H108.576V31.9546H108.803C109.166 31.0227 109.754 30.2992 110.564 29.7841C111.375 29.2614 112.348 29 113.485 29C114.636 29 115.594 29.2614 116.36 29.7841C117.132 30.2992 117.735 31.0227 118.166 31.9546H118.348C118.795 31.053 119.466 30.3371 120.36 29.8068C121.254 29.2689 122.326 29 123.576 29C125.136 29 126.413 29.4886 127.405 30.4659C128.397 31.4356 128.894 32.947 128.894 35V46.6818H126.212V35C126.212 33.7121 125.86 32.7917 125.155 32.2386C124.451 31.6856 123.621 31.4091 122.666 31.4091C121.439 31.4091 120.488 31.7803 119.814 32.5227C119.14 33.2576 118.803 34.1894 118.803 35.3182V46.6818H116.076V34.7273C116.076 33.7349 115.754 32.9356 115.11 32.3296C114.466 31.7159 113.636 31.4091 112.621 31.4091C111.924 31.4091 111.272 31.5947 110.666 31.9659C110.068 32.3371 109.583 32.8523 109.212 33.5114C108.848 34.1629 108.666 34.9167 108.666 35.7727V46.6818H105.985ZM133.797 53.2273V29.2273H136.388V32H136.706C136.903 31.697 137.176 31.3106 137.524 30.8409C137.88 30.3636 138.388 29.9394 139.047 29.5682C139.714 29.1894 140.615 29 141.752 29C143.221 29 144.517 29.3674 145.638 30.1023C146.759 30.8371 147.634 31.8788 148.263 33.2273C148.892 34.5758 149.206 36.1667 149.206 38C149.206 39.8485 148.892 41.4508 148.263 42.8068C147.634 44.1553 146.763 45.2008 145.649 45.9432C144.536 46.678 143.252 47.0455 141.797 47.0455C140.676 47.0455 139.778 46.8599 139.104 46.4886C138.43 46.1099 137.911 45.6818 137.547 45.2046C137.183 44.7197 136.903 44.3182 136.706 44H136.479V53.2273H133.797ZM136.433 37.9546C136.433 39.2727 136.627 40.4356 137.013 41.4432C137.399 42.4432 137.964 43.2273 138.706 43.7955C139.449 44.3561 140.358 44.6364 141.433 44.6364C142.555 44.6364 143.49 44.3409 144.24 43.75C144.998 43.1515 145.566 42.3485 145.945 41.3409C146.331 40.3258 146.524 39.197 146.524 37.9546C146.524 36.7273 146.335 35.6212 145.956 34.6364C145.585 33.6439 145.021 32.8599 144.263 32.2841C143.513 31.7008 142.57 31.4091 141.433 31.4091C140.343 31.4091 139.426 31.6856 138.683 32.2386C137.941 32.7841 137.38 33.5492 137.002 34.5341C136.623 35.5114 136.433 36.6515 136.433 37.9546ZM158.433 47.0909C157.327 47.0909 156.324 46.8826 155.422 46.4659C154.521 46.0417 153.805 45.4318 153.274 44.6364C152.744 43.8333 152.479 42.8636 152.479 41.7273C152.479 40.7273 152.676 39.9167 153.07 39.2955C153.464 38.6667 153.99 38.1742 154.649 37.8182C155.308 37.4621 156.036 37.197 156.831 37.0227C157.634 36.8409 158.441 36.697 159.252 36.5909C160.312 36.4546 161.172 36.3523 161.831 36.2841C162.498 36.2083 162.983 36.0833 163.286 35.9091C163.596 35.7349 163.752 35.4318 163.752 35V34.9091C163.752 33.7879 163.445 32.9167 162.831 32.2955C162.225 31.6742 161.305 31.3636 160.07 31.3636C158.79 31.3636 157.786 31.6439 157.058 32.2046C156.331 32.7652 155.82 33.3636 155.524 34L152.979 33.0909C153.433 32.0303 154.04 31.2046 154.797 30.6136C155.562 30.0152 156.396 29.5985 157.297 29.3636C158.206 29.1212 159.1 29 159.979 29C160.54 29 161.183 29.0682 161.911 29.2045C162.646 29.3333 163.354 29.6023 164.036 30.0114C164.725 30.4205 165.297 31.0379 165.752 31.8636C166.206 32.6894 166.433 33.7955 166.433 35.1818V46.6818H163.752V44.3182H163.615C163.433 44.697 163.13 45.1023 162.706 45.5341C162.282 45.9659 161.718 46.3333 161.013 46.6364C160.308 46.9394 159.449 47.0909 158.433 47.0909ZM158.843 44.6818C159.903 44.6818 160.797 44.4735 161.524 44.0568C162.259 43.6402 162.812 43.1023 163.183 42.4432C163.562 41.7841 163.752 41.0909 163.752 40.3636V37.9091C163.638 38.0455 163.388 38.1705 163.002 38.2841C162.623 38.3902 162.183 38.4849 161.683 38.5682C161.191 38.6439 160.71 38.7121 160.24 38.7727C159.778 38.8258 159.403 38.8712 159.115 38.9091C158.418 39 157.767 39.1477 157.161 39.3523C156.562 39.5492 156.077 39.8485 155.706 40.25C155.343 40.6439 155.161 41.1818 155.161 41.8636C155.161 42.7955 155.505 43.5 156.195 43.9773C156.892 44.447 157.774 44.6818 158.843 44.6818ZM174.01 36.1818V46.6818H171.328V29.2273H173.919V31.9546H174.147C174.556 31.0682 175.177 30.3561 176.01 29.8182C176.844 29.2727 177.919 29 179.237 29C180.419 29 181.453 29.2424 182.34 29.7273C183.226 30.2046 183.915 30.9318 184.408 31.9091C184.9 32.8788 185.147 34.1061 185.147 35.5909V46.6818H182.465V35.7727C182.465 34.4015 182.109 33.3333 181.397 32.5682C180.684 31.7955 179.707 31.4091 178.465 31.4091C177.609 31.4091 176.844 31.5947 176.169 31.9659C175.503 32.3371 174.976 32.8788 174.59 33.5909C174.203 34.303 174.01 35.1667 174.01 36.1818ZM191.149 53.2273C190.695 53.2273 190.29 53.1894 189.933 53.1136C189.577 53.0455 189.331 52.9773 189.195 52.9091L189.877 50.5455C190.528 50.7121 191.104 50.7727 191.604 50.7273C192.104 50.6818 192.547 50.4583 192.933 50.0568C193.327 49.6629 193.687 49.0227 194.013 48.1364L194.513 46.7727L188.058 29.2273H190.968L195.786 43.1364H195.968L200.786 29.2273H203.695L196.286 49.2273C195.952 50.1288 195.54 50.875 195.047 51.4659C194.555 52.0644 193.983 52.5076 193.331 52.7955C192.687 53.0833 191.96 53.2273 191.149 53.2273Z" fill="white"/>
</svg>
